<?xml version="1.0" standalone="no"?><!DOCTYPE svg PUBLIC "-//W3C//DTD SVG 1.1//EN" "http://www.w3.org/Graphics/SVG/1.1/DTD/svg11.dtd"><svg t="1748429554349" class="icon" viewBox="0 0 1024 1024" version="1.1" xmlns="http://www.w3.org/2000/svg" p-id="7494" xmlns:xlink="http://www.w3.org/1999/xlink" width="200" height="200"><path d="M698.197333 698.197333l60.330667 60.330667c-9.386667 9.216-18.986667 18.048-28.714667 26.453333l-146.816 127.274667a108.373333 108.373333 0 0 1-141.994666 0L294.186667 785.066667C205.226667 707.84 128 598.4 128 469.290667c0-95.146667 34.645333-182.229333 91.989333-249.344l60.586667 60.586666A297.429333 297.429333 0 0 0 213.333333 469.333333c0 94.08 56.96 182.058667 136.746667 251.178667l146.816 127.274667a23.04 23.04 0 0 0 30.208 0l146.816-127.274667c8.362667-7.253333 16.469333-14.677333 24.32-22.314667zM392.021333 104.448A384 384 0 0 1 896 469.333333c0 43.861333-8.96 85.632-24.32 124.586667a42.666667 42.666667 0 0 1-79.36-31.274667c11.818667-30.08 18.346667-61.269333 18.346667-93.312a298.666667 298.666667 0 0 0-392.021334-283.818666 42.666667 42.666667 0 0 1-26.624-81.066667z" fill="#2A343D" p-id="7495"></path><path d="M97.834667 97.834667a42.666667 42.666667 0 0 1 60.330666 0l768 768a42.666667 42.666667 0 0 1-60.330666 60.330666l-768-768a42.666667 42.666667 0 0 1 0-60.330666z" fill="#2A343D" p-id="7496"></path></svg>