<?xml version="1.0" standalone="no"?><!DOCTYPE svg PUBLIC "-//W3C//DTD SVG 1.1//EN" "http://www.w3.org/Graphics/SVG/1.1/DTD/svg11.dtd"><svg t="1747460479269" class="icon" viewBox="0 0 1024 1024" version="1.1" xmlns="http://www.w3.org/2000/svg" p-id="8979" xmlns:xlink="http://www.w3.org/1999/xlink" width="200" height="200"><path d="M128 927.982933A95.982933 95.982933 0 0 0 223.982933 1024h576a95.982933 95.982933 0 0 0 96.017067-95.982933V256h-768z m543.982933-512a32.017067 32.017067 0 0 1 64 0v448a32.017067 32.017067 0 0 1-64 0z m-192 0a31.982933 31.982933 0 1 1 64 0v448a31.982933 31.982933 0 1 1-64 0z m-192 0a31.982933 31.982933 0 1 1 64 0v448a31.982933 31.982933 0 1 1-64 0z m640-351.982933h-239.991466L669.184 26.589867A47.991467 47.991467 0 0 0 626.210133 0h-228.693333A47.445333 47.445333 0 0 0 354.816 26.589867l-18.807467 37.546666H95.982933A31.982933 31.982933 0 0 0 64 95.982933v64a31.982933 31.982933 0 0 0 31.982933 31.982934h832a31.982933 31.982933 0 0 0 32.017067-31.982934V95.982933a31.982933 31.982933 0 0 0-32.017067-31.982933z" fill="#cdcdcd" p-id="8980"></path></svg>