<?xml version="1.0" standalone="no"?><!DOCTYPE svg PUBLIC "-//W3C//DTD SVG 1.1//EN" "http://www.w3.org/Graphics/SVG/1.1/DTD/svg11.dtd"><svg t="1748430169927" class="icon" viewBox="0 0 1024 1024" version="1.1" xmlns="http://www.w3.org/2000/svg" p-id="11507" xmlns:xlink="http://www.w3.org/1999/xlink" width="200" height="200"><path d="M725.333333 469.333333c18.986667-27.733333 33.834667-42.666667 42.666667-42.666666 27.818667 0 42.666667 14.933333 42.666667 42.666666v384c0 49.578667-34.901333 85.333333-85.333334 85.333334h-426.666666c-50.389333 0-85.333333-35.754667-85.333334-85.333334v-384c0-27.733333 14.890667-42.666667 42.666667-42.666666 8.874667 0 23.722667 14.933333 42.666667 42.666666v384c-18.944 12.970667-13.482667 18.56 0 0h426.666666c13.482667 18.56 18.986667 12.970667 0 0v-384zM213.333333 341.333333c-28.032 0-42.666667-19.072-42.666666-42.666666 0-23.552 14.634667-42.666667 42.666666-42.666667h597.333334c28.032 0 42.666667 19.114667 42.666666 42.666667 0 23.594667-14.634667 42.666667-42.666666 42.666666h-597.333334z" fill="#000000" p-id="11508"></path><path d="M384 426.666667m42.666667 0l0 0q42.666667 0 42.666666 42.666666l0 256q0 42.666667-42.666666 42.666667l0 0q-42.666667 0-42.666667-42.666667l0-256q0-42.666667 42.666667-42.666666Z" fill="#000000" p-id="11509"></path><path d="M554.666667 426.666667m42.666666 0l0 0q42.666667 0 42.666667 42.666666l0 256q0 42.666667-42.666667 42.666667l0 0q-42.666667 0-42.666666-42.666667l0-256q0-42.666667 42.666666-42.666666Z" fill="#000000" p-id="11510"></path><path d="M426.666667 213.333333c-27.818667 0-42.666667-19.072-42.666667-42.666666 0-23.552 14.848-42.666667 42.666667-42.666667h170.666666c27.861333 0 42.666667 19.114667 42.666667 42.666667 0 23.594667-14.805333 42.666667-42.666667 42.666666h-170.666666z" fill="#000000" p-id="11511"></path></svg>