<?xml version="1.0" standalone="no"?><!DOCTYPE svg PUBLIC "-//W3C//DTD SVG 1.1//EN" "http://www.w3.org/Graphics/SVG/1.1/DTD/svg11.dtd"><svg t="1748429740897" class="icon" viewBox="0 0 1024 1024" version="1.1" xmlns="http://www.w3.org/2000/svg" p-id="8536" xmlns:xlink="http://www.w3.org/1999/xlink" width="200" height="200"><path d="M883.8304 41.01546667L512.00213333 412.84693333 140.1696 41.01546667c-27.38026667-27.3792-71.77386667-27.3792-99.1552 0-27.37813333 27.3792-27.37813333 71.77066667 0 99.1552l371.8336 371.83146666L41.0144 883.82933333c-27.37813333 27.38026667-27.37813333 71.776 0 99.15413334 27.38133333 27.38133333 71.776 27.38133333 99.1552 0L512.00213333 611.15733333l371.82933334 371.82613334c27.37813333 27.38133333 71.77386667 27.38133333 99.15306666 0 27.3792-27.37813333 27.3792-71.77386667 0-99.15413334L611.15733333 512.00213333 982.98453333 140.17066667c27.3792-27.38133333 27.3792-71.776 0-99.1552-27.3792-27.38133333-71.7696-27.38133333-99.15413333 0z m0 0" fill="#333333" p-id="8537"></path></svg>