<?xml version="1.0" standalone="no"?><!DOCTYPE svg PUBLIC "-//W3C//DTD SVG 1.1//EN" "http://www.w3.org/Graphics/SVG/1.1/DTD/svg11.dtd"><svg t="1747912628245" class="icon" viewBox="0 0 1024 1024" version="1.1" xmlns="http://www.w3.org/2000/svg" p-id="2381" xmlns:xlink="http://www.w3.org/1999/xlink" width="200" height="200"><path d="M795.468 546.64l141.172-117.972v143.808c0 197.076-159.762 356.838-356.838 356.838-197.076 0-356.838-159.762-356.838-356.838V546.64h572.504z" fill="#E0E0E2" p-id="2382"></path><path d="M936.64 477.692v-49.026l-141.172 117.974h58.664zM281.626 572.474V546.64H222.96v25.836c0 197.076 159.762 356.838 356.838 356.838 9.878 0 19.658-0.42 29.334-1.208-183.35-14.922-327.506-168.434-327.506-355.632z" fill="#898890" p-id="2383"></path><path d="M777.8 637.372v16.014c0 122.162-99.032 221.192-221.192 221.192-122.162 0-221.192-99.032-221.192-221.192v-16.014H777.8z" fill="#E0E0E2" p-id="2384"></path><path d="M402.8 653.386v-16.014h-67.386v16.014c0 122.162 99.032 221.192 221.192 221.192 11.456 0 22.706-0.87 33.692-2.55-106.17-16.224-187.498-107.934-187.498-218.642z" fill="#898890" p-id="2385"></path><path d="M222.96 546.64h213.05V232.738c0-58.832-47.692-106.526-106.526-106.526-58.832 0-106.526 47.692-106.526 106.526l0.002 313.902z" fill="#E0E0E2" p-id="2386"></path><path d="M358.644 130.286a106.492 106.492 0 0 0-29.156-4.074c-58.832 0-106.526 47.692-106.526 106.526V546.64h58.314V232.738c-0.002-48.718 32.714-89.768 77.368-102.452z" fill="#898890" p-id="2387"></path><path d="M222.96 345.708v-84.02l-107.16 84.02z" fill="#FEDA44" p-id="2388"></path><path d="M222.96 261.688l-107.16 84.02h38.578l68.582-53.772z" fill="#FF9911" p-id="2389"></path><path d="M240.822 63.708c11.82 0 22.798 3.6 31.9 9.762C282.602 39.686 313.794 15 350.772 15c35.528 0 65.716 22.788 76.794 54.538a81.062 81.062 0 0 1 30.234-5.83c44.92 0 81.334 36.414 81.334 81.334s-36.414 81.334-81.334 81.334c-7.708 0-15.164-1.076-22.228-3.08-4.782-54.406-50.438-97.082-106.086-97.082-38.652 0-72.492 20.586-91.164 51.392-30.31-1.308-54.482-26.284-54.482-56.916 0.002-31.472 25.512-56.982 56.982-56.982z" fill="#FF6D24" p-id="2390"></path><path d="M479.578 66.68a80.8 80.8 0 0 0-10.472-2.172c0.704 1.652 1.364 3.324 1.958 5.03a81.794 81.794 0 0 1 8.514-2.858zM284.32 63.708c11.82 0 22.798 3.6 31.9 9.762 7.868-26.902 29.258-48.02 56.314-55.512a81.36 81.36 0 0 0-21.762-2.956c-33.548 0-62.334 20.32-74.764 49.318 2.714-0.4 5.488-0.612 8.312-0.612zM227.342 120.688c0-23.756 14.542-44.108 35.208-52.662a56.744 56.744 0 0 0-21.728-4.318c-31.47 0-56.98 25.51-56.98 56.98 0 30.632 24.174 55.608 54.482 56.916a106.962 106.962 0 0 1 9.464-13.214c-12.492-10.45-20.446-26.142-20.446-43.702zM479.07 223.294c-4.782-54.406-50.438-97.082-106.086-97.082-7.468 0-14.754 0.776-21.788 2.24 45.41 9.41 80.232 47.714 84.374 94.844a81.334 81.334 0 0 0 22.228 3.08c7.534 0 14.82-1.046 21.744-2.964-0.152-0.044-0.316-0.074-0.472-0.118z" fill="#D80029" p-id="2391"></path><path d="M222.96 502v-156.292H189.714L170.3 436.96C163.178 470.454 188.718 502 222.96 502z" fill="#FF6D24" p-id="2392"></path><path d="M194.636 436.96l19.412-91.252H189.714L170.3 436.96C163.178 470.454 188.718 502 222.96 502v-5.798c-20.898-10.612-33.612-34.384-28.324-59.242z" fill="#D80029" p-id="2393"></path><path d="M573.04 929.32h52.75v79.688H573.04z" fill="#FEDA44" p-id="2394"></path><path d="M520.3 929.32h52.75v79.688H520.3z" fill="#FEDA44" p-id="2395"></path><path d="M520.3 929.32h26.374v79.688H520.3zM573.04 929.32h26.374v79.688H573.04z" fill="#FF9911" p-id="2396"></path><path d="M416.894 702.722l-28.518 9.312a176.66 176.66 0 0 0 11.44 27.102l26.568-13.934a146.134 146.134 0 0 1-9.49-22.48zM556.606 834v-30c-47.52 0-92.34-23.164-119.896-61.964l-24.458 17.372C445.424 806.116 499.39 834 556.606 834zM372.798 336h30v176h-30zM372.798 263h30v54h-30zM778.658 575.66h74.66v30h-74.66zM361.798 575.66h385.52v30h-385.52z" fill="#FFFFFF" p-id="2397"></path><path d="M320.414 653.386c0 130.238 105.956 236.194 236.194 236.194 130.236 0 236.192-105.956 236.192-236.194v-31.014H320.414v31.014z m30-1.012H762.8v1.014c0 10.024-0.734 19.876-2.122 29.522H581.8v30h172.23a204.71 204.71 0 0 1-10.786 28.068H613.8v30h112.082a207.866 207.866 0 0 1-23.47 28.068h-69.278v30h31.338c-31.4 19.352-68.348 30.536-107.864 30.536-113.696 0-206.194-92.498-206.194-206.194v-1.014zM421.018 366h30v42h-30z" p-id="2398"></path><path d="M755.838 865.348c-51.452 31.05-111.682 48.966-176.038 48.966-188.49 0-341.838-153.348-341.838-341.838v-10.836H865.8v-30h-28.99l84.83-70.888v111.724c0 51.692-11.554 100.728-32.182 144.696H821.8v30h51.716a343.948 343.948 0 0 1-39.074 53.088l19.922 22.67c60.386-66.128 97.278-154.054 97.278-250.452v-175.892l-161.616 135.056H451.01v-93.628h-30v93.628H237.96V509h49.172v-30H237.96V232.696c0.02-50.448 41.07-91.484 91.526-91.484 50.466 0 91.524 41.056 91.524 91.524V336h30v-94.864c2.256 0.158 4.52 0.24 6.79 0.24 53.118 0 96.334-43.214 96.334-96.334S510.92 48.708 457.8 48.708c-7.428 0-14.756 0.844-21.906 2.516C419.39 20.086 386.772 0 350.772 0c-36.524 0-69.732 21.028-85.922 52.816a71.918 71.918 0 0 0-24.03-4.11c-39.69 0-71.98 32.292-71.98 71.98a71.808 71.808 0 0 0 47.526 67.726 120.842 120.842 0 0 0-8.406 44.322v21.652l-135.602 106.32h98.828l-15.556 73.13c-4.342 20.412 0.7 41.42 13.83 57.638 9.918 12.25 23.47 20.546 38.5 23.876v57.12c0 179.524 127.886 329.738 297.338 364.336V1024H640.8v-84.718c48.906-8.106 94.614-25.8 135.138-51.06l-20.1-22.874zM207.96 484.006a38.76 38.76 0 0 1-15.184-11.404 38.668 38.668 0 0 1-7.802-32.52l16.884-79.374h6.102v123.298z m0-153.298H159.24l48.718-38.198 0.002 38.198z m-9.118-210.02c0-23.148 18.832-41.98 41.98-41.98 6.856 0 13.5 1.672 19.48 4.816l8.634 25.32 28.394-9.684-8.784-25.76C298.058 47.636 323.02 30 350.774 30c25.978 0 49.364 15.212 60.138 38.428l-16.122 28.11 26.024 14.926 17.012-29.66a65.964 65.964 0 0 1 19.976-3.096c36.576 0 66.334 29.758 66.334 66.334s-29.756 66.334-66.334 66.334c-2.958 0-5.902-0.206-8.814-0.594a120.476 120.476 0 0 0-11.066-32.806l47.898-30.3-16.038-25.352-48.63 30.762c-15.104-17.358-35.03-30.394-57.686-37.004V73.468h-30v37.846c-1.324-0.042-2.646-0.1-3.98-0.1a120.772 120.772 0 0 0-62.368 17.274c-2.588-2.49-5.5-5.282-8.436-8.09-8.518-8.152-17.04-16.262-17.04-16.262L220.96 125.866a8492 8492 0 0 1 22.316 21.316 122.74 122.74 0 0 0-12.172 14.34 41.856 41.856 0 0 1-32.262-40.834zM558.05 994H535.3v-49.688h22.75V994z m52.75 0h-22.75v-49.688H610.8V994z" p-id="2399"></path><path d="M800.918 871.2a374.986 374.986 0 0 0 32.296-26.892l-19.81-22.542a344.594 344.594 0 0 1-32.36 26.818l19.874 22.616z" p-id="2400"></path></svg>