<?xml version="1.0" standalone="no"?><!DOCTYPE svg PUBLIC "-//W3C//DTD SVG 1.1//EN" "http://www.w3.org/Graphics/SVG/1.1/DTD/svg11.dtd"><svg t="1747912312656" class="icon" viewBox="0 0 1024 1024" version="1.1" xmlns="http://www.w3.org/2000/svg" p-id="2028" xmlns:xlink="http://www.w3.org/1999/xlink" width="200" height="200"><path d="M854.236 369.538l-404.094-8.352c-25.186-0.52-45.6-20.058-47.876-45.146l-0.042-0.458c-8.536-91.28-89.454-158.358-180.736-149.822-72.724 6.802-130.038 59.562-146.038 126.886H15v142h71.49c12.572 0 24.486 5.19 33.404 14.052a166.606 166.606 0 0 0 63.764 39.568l34.746 132.042v238.67h96.54v-137.394l65.244 26.594a546.22 546.22 0 0 0 386.85 9.664l103.456-36.26v137.394h96.54V482.334c-0.002-62.296-50.502-112.796-112.798-112.796z" fill="#F7AFD4" p-id="2029"></path><path d="M244.308 488.268a166.606 166.606 0 0 1-63.764-39.568c-8.918-8.862-20.832-14.052-33.404-14.052H86.49c12.572 0 24.486 5.19 33.404 14.052a166.606 166.606 0 0 0 63.764 39.568l34.746 132.042V858.98h60.652V620.31l-34.748-132.042zM136.102 292.648c14.892-62.666 65.588-112.694 131.18-124.804a165.912 165.912 0 0 0-45.794-2.082c-72.724 6.802-130.038 59.562-146.038 126.886H15v142h60.652v-142h60.45z" fill="#EF539D" p-id="2030"></path><path d="M243.606 385.696a25.72 25.72 0 0 1-25.614-23.402l-10.568-116.824h128.242l-5.534 61.174c-4.048 44.766-41.576 79.052-86.526 79.052z" fill="#EB358A" p-id="2031"></path><path d="M261.39 362.294l-10.568-116.824h-43.398l10.568 116.824a25.72 25.72 0 0 0 25.614 23.402 86.72 86.72 0 0 0 28.484-4.792c-5.914-4.22-10-10.878-10.7-18.61z" fill="#A8125A" p-id="2032"></path><path d="M380.188 748.18l-65.244-26.594v137.394h96.54v-99.188a546.824 546.824 0 0 1-31.296-11.612zM775.146 755v103.978h95.346v-137.394z" fill="#F7AFD4" p-id="2033"></path><path d="M314.944 721.584v137.394h31.88V734.58zM870.492 732.758v-11.174L775.146 755v103.978h31.88V755z" fill="#EF539D" p-id="2034"></path><path d="M569.98 397.704h49.334v30H569.98zM442.34 397.704h109.334v30H442.34zM253 743.584h30v70h-30zM253 689.584h30v40.666h-30zM905.66 743.584h30v70h-30zM905.66 689.584h30v40.666h-30zM586.368 711.196a532.41 532.41 0 0 1-103.334-10.148l-5.836 29.428a562.514 562.514 0 0 0 109.172 10.72 559.86 559.86 0 0 0 185.628-31.588l-9.922-28.31a530.002 530.002 0 0 1-175.708 29.898zM374.524 699.678a563.32 563.32 0 0 0 75.894 24.802l7.268-29.106a532.924 532.924 0 0 1-71.838-23.478l-11.324 27.782zM239.784 299.774l-2.074-22.926 29.876-2.702 2.074 22.924zM240.776 310.812l29.878-2.704 3.6 39.782-29.88 2.704z" fill="#FFFFFF" p-id="2035"></path><path d="M724.654 351.856l-0.906 29.988 42.004 0.868 0.904-29.988zM203.4 690.244h30v42h-30z" p-id="2036"></path><path d="M1024 302.686c0-52.382-42.618-95-95-95-29.988 0-56.126 16.794-69.504 41.472H830v30h20.356a79.4 79.4 0 0 0-0.356 7.528c0 36.502 29.698 66.2 66.2 66.2 30.856 0 55.96-25.104 55.96-55.96 0-26.34-21.428-47.768-47.768-47.768h-26.864a48.786 48.786 0 0 1 31.472-11.472c35.84 0 65 29.16 65 65 0 37.38-23.814 69.658-58.758 80.886-22.026-18.1-50.186-28.996-80.848-29.032l-57.744-1.194-0.904 29.988 58.178 1.202 0.31 0.002c53.924 0 97.794 43.872 97.794 97.794v361.646h-66.54V648.92h-30v62.026l-93.416 32.74a529.932 529.932 0 0 1-175.706 29.9c-69.082 0-136.546-13.222-200.52-39.298L329.94 711.5v-62.58h-30v195.06H233.4v-81.728h-30v111.728h223.084v-93.626c51.792 15.43 105.362 23.234 159.886 23.234 59.196 0 117.592-9.28 173.778-27.588v97.98H982.032V482.334c0-28.122-9.15-54.138-24.602-75.266C997.552 388.616 1024 348.484 1024 302.686z m-99.608-23.53c9.798 0 17.768 7.97 17.768 17.768 0 14.314-11.646 25.96-25.96 25.96-19.96 0-36.2-16.24-36.2-36.2 0-2.56 0.198-5.074 0.578-7.528h43.814zM396.484 843.98h-66.54v-100.082l44.582 18.172c7.276 2.966 14.6 5.742 21.958 8.392v73.518z m459.008 0h-65.344v-78.34l65.344-22.902v101.242z" p-id="2037"></path><path d="M109.32 459.34a182.76 182.76 0 0 0 61.824 40.318l32.258 122.592v37.992h30v-41.872l-10-38 68.392-20.85-8.748-28.696-67.284 20.514-11.098-42.178a181.74 181.74 0 0 0 32.646 2.976v-30a150.67 150.67 0 0 1-48.806-8.062l-0.02-0.006c-21.662-7.364-41.724-19.814-58.018-36.004-11.948-11.874-27.566-18.414-43.978-18.414H30v-112h30.452v40.274h30v-53.38c15.484-62.2 68.492-107.87 132.434-113.85 49.506-4.63 95.736 15.318 126.61 49.774H173.5v30h20.22l9.332 103.174c1.91 21.124 19.344 37.052 40.554 37.052 53.066 0 96.686-39.852 101.466-92.702l6.766-74.808c19.404 22.714 32.296 51.34 35.386 83.228v20.13c0 26.758-10.42 51.914-29.34 70.834l21.212 21.212c17.882-17.882 29.886-40.062 35.122-64.2a63.482 63.482 0 0 0 35.614 11.786l243.92 5.042 0.904-29.988-244.206-5.048c-17.356-0.358-31.65-13.902-33.246-31.49l-0.048-0.512c-9.294-99.37-97.696-172.666-197.068-163.36C146.79 157.682 85.45 208.046 64 277.648H0v172h86.49c8.432 0 16.54 3.442 22.83 9.692z m205.874-154.048c-3.372 37.288-34.148 65.404-71.586 65.404a10.664 10.664 0 0 1-10.674-9.754l-9.088-100.472h95.406l-4.058 44.822z" p-id="2038"></path></svg>