<?xml version="1.0" standalone="no"?><!DOCTYPE svg PUBLIC "-//W3C//DTD SVG 1.1//EN" "http://www.w3.org/Graphics/SVG/1.1/DTD/svg11.dtd"><svg t="1747905115065" class="icon" viewBox="0 0 1024 1024" version="1.1" xmlns="http://www.w3.org/2000/svg" p-id="2340" xmlns:xlink="http://www.w3.org/1999/xlink" width="200" height="200"><path d="M870.4 546.133333H186.606933a17.169067 17.169067 0 0 0-16.657066 20.957867l95.402666 409.053867A60.416 60.416 0 0 0 324.266667 1024h401.544533c28.330667 0 53.1456-20.104533 58.7776-47.2064l102.4-409.463467A17.066667 17.066667 0 0 0 870.4 546.133333z m50.551467-133.597866C914.0224 183.842133 741.137067 0 529.066667 0 317.917867 0 145.646933 182.272 137.3184 409.6H119.466667c-28.228267 0-51.2 22.971733-51.2 51.2S91.2384 512 119.466667 512h785.066666c28.228267 0 51.2-22.971733 51.2-51.2 0-22.459733-14.6432-41.3696-34.781866-48.264533zM171.451733 409.6C179.712 201.079467 336.6912 34.133333 529.066667 34.133333s349.354667 166.946133 357.614933 375.466667H171.451733z" p-id="2341" fill="#1296db"></path></svg>