<?xml version="1.0" standalone="no"?><!DOCTYPE svg PUBLIC "-//W3C//DTD SVG 1.1//EN" "http://www.w3.org/Graphics/SVG/1.1/DTD/svg11.dtd"><svg t="1747906279385" class="icon" viewBox="0 0 1024 1024" version="1.1" xmlns="http://www.w3.org/2000/svg" p-id="4372" xmlns:xlink="http://www.w3.org/1999/xlink" width="200" height="200"><path d="M352.0018 1024h319.9964a31.99964 31.99964 0 0 0 31.99964-31.99964v-107.198794c156.222242-74.047167 255.99712-230.653405 255.99712-404.795446a31.99964 31.99964 0 0 0-31.99964-31.99964H96.00468a31.99964 31.99964 0 0 0-31.99964 31.99964 446.842973 446.842973 0 0 0 255.99712 404.795446V992.00036a31.99964 31.99964 0 0 0 31.99964 31.99964zM129.316305 512.00576h765.36739a383.09969 383.09969 0 0 1-235.005356 322.492372A31.99964 31.99964 0 0 0 639.99856 864.0018v95.99892h-255.99712v-95.99892a31.99964 31.99964 0 0 0-19.679779-29.503668A383.09969 383.09969 0 0 1 129.284306 512.00576zM746.941357 1.931498a32.03164 32.03164 0 0 0-41.023539 19.135785l-127.99856 351.99604a31.99964 31.99964 0 0 0 60.159324 21.887754l127.99856-351.99604A31.99964 31.99964 0 0 0 746.941357 1.931498zM684.798056 409.606912a31.96764 31.96764 0 0 0 44.799496-6.399928l191.99784-255.99712a31.99964 31.99964 0 1 0-51.199424-38.399568l-191.99784 255.99712a31.99964 31.99964 0 0 0 6.399928 44.799496z" fill="#5465CF" p-id="4373"></path><path d="M384.00144 720.00342a15.99982 15.99982 0 0 0-15.99982-15.99982C306.242315 704.0036 256.00288 653.764165 256.00288 592.00486a15.99982 15.99982 0 1 0-31.99964 0c0 79.391107 64.607273 143.99838 143.99838 143.99838a15.99982 15.99982 0 0 0 15.99982-15.99982z" fill="#5465CF" p-id="4374"></path></svg>