<?xml version="1.0" standalone="no"?><!DOCTYPE svg PUBLIC "-//W3C//DTD SVG 1.1//EN" "http://www.w3.org/Graphics/SVG/1.1/DTD/svg11.dtd"><svg t="1747300819186" class="icon" viewBox="0 0 1078 1024" version="1.1" xmlns="http://www.w3.org/2000/svg" p-id="9072" xmlns:xlink="http://www.w3.org/1999/xlink" width="210.546875" height="200"><path d="M955.816034 403.240889c26.922107 13.468438 33.065605 23.820822 33.065605 68.272574 0 32.194292-0.782705 46.061466-4.267958 70.413937-1.063298 7.47262-3.204661 19.198431-5.331257 25.607753s-4.267959 19.198431-7.47262 26.671051c-8.683598 20.246961-21.974819 51.245042-34.143671 68.272574-30.451665 42.635285-66.88438 80.914002-116.283419 105.606138-36.403179 18.208973-72.407621 27.114092-121.614676 34.143671-7.47262 1.063298-36.270266 1.063298-62.941317 1.063298h-48.010845v89.612368c0 56.531995 0 92.802261-1.063298 96.006923-6.409322 19.213199-17.219516 35.206969-43.742886 35.206968-26.863035 0-37.156348-15.447353-43.742887-35.206968-1.063298-3.204661-1.063298-60.799954-1.063298-162.152901V669.951398h-48.010845c-45.204921 0-60.578433 1.107602-87.471005-4.267959a575.775711 575.775711 0 0 1-69.335871-18.135133c-26.538139-8.846046-57.580525-29.639424-77.87179-45.869482-15.284905-12.227924-31.293442-27.985405-44.806184-43.742886-19.375647-22.609844-32.341972-47.626877-45.869481-74.667128-15.004312-30.023392-19.9516-62.808405-25.607754-102.416245-1.063298-7.47262-1.063298-36.270266-1.063297-64.004615 0-43.49183-0.236288-50.491873 5.331256-67.209276 4.120279-12.360836 18.120365-18.135133 28.797647-23.46639 2.141363-1.063298 39.474928-1.063298 88.534302-1.063298 98.709471 0 77.517357-0.590721 119.473312 6.394555 6.394554 1.063298 16.008538 3.204661 22.403092 5.331256l22.403092 7.47262c43.801958 14.605576 80.175601 41.763971 109.874097 71.477235 17.544412 17.544412 28.590894 28.797646 39.474928 46.93278 18.46003 30.776562 39.888432 67.593245 46.932779 109.874097 1.063298 6.394554 3.204661 14.930472 3.204661 18.135133s1.063298 6.394554 1.063298 6.394554c5.331257-4.799608 23.998039-19.73008 29.875712-25.607753 4.267959-4.267959 11.740579-9.599215 17.071836-12.803877 87.840205-52.707077 104.646216-55.468697 234.693433-55.468697h87.471005zM243.229351 313.628521h-54.405399v36.270266c0 42.694357 2.599172 39.652144 7.47262 64.004615 10.721585 53.593158 45.027704 92.772725 81.07645 121.614676 15.329209 12.272228 28.974863 22.107732 49.074143 28.797646 46.726027 15.580265 33.021301 16.008538 115.205354 16.008538h57.610061v-28.797646c0-85.669306-26.036026-132.705462-69.335872-176.020076-16.776475-16.776475-33.612022-25.917882-54.4054-38.396861-5.331257-3.204661-14.930472-6.394554-21.339794-8.535918l-22.403092-7.47262c-6.394554-2.141363-17.071835-4.267959-23.46639-5.331257-9.599215-1.063298-22.403092-2.141363-65.067913-2.141363zM849.146599 491.775191c-27.734349 0-52.264036 1.063298-54.4054 1.063298-32.725941 0-58.333694 12.198388-82.139748 22.403092-30.569809 13.099237-55.97081 34.808232-74.667128 59.736656-24.544456 32.711173-49.074143 74.903417-49.074143 131.213892v7.47262h51.200738c47.065692 0 56.19233-0.118144 81.076451-4.267959 17.042299-2.835461 28.62043-8.831278 43.742886-13.867175 6.394554-2.141363 17.071835-7.47262 23.46639-11.740579l22.403092-14.930472c22.388324-14.915704 46.607883-42.00026 58.673358-66.145978l11.740579-23.46639c9.64352-19.272271 12.316532-39.209103 17.071836-62.941317 1.063298-5.331257 1.063298-12.803877 1.063297-17.071836v-7.47262H849.161367z" p-id="9073"></path></svg>