<?xml version="1.0" standalone="no"?><!DOCTYPE svg PUBLIC "-//W3C//DTD SVG 1.1//EN" "http://www.w3.org/Graphics/SVG/1.1/DTD/svg11.dtd"><svg t="1747828596388" class="icon" viewBox="0 0 1024 1024" version="1.1" xmlns="http://www.w3.org/2000/svg" p-id="12156" xmlns:xlink="http://www.w3.org/1999/xlink" width="200" height="200"><path d="M479.442824 90.352941c16.805647 0.090353 49.483294 17.106824 66.198588 17.257412 21.504 0.180706 42.857412-16.444235 63.789176-16.173177 21.232941 0.271059 42.044235 18.160941 62.132706 18.492236 20.690824 0.361412 40.658824-16.835765 59.542588-16.414118 16.143059 0.361412 31.503059 18.311529 45.95953 18.733177 23.943529 0.632471 45.327059-16.233412 63.307294-15.510589 31.924706 1.325176 53.217882 2.710588 59.392 4.096 41.200941 9.336471-44.423529 60.656941-41.200941 80.986353C886.031059 354.846118 933.647059 563.802353 933.647059 685.025882c0 203.203765-95.021176 198.475294-172.574118 227.117177-77.522824 28.672-458.179765 28.672-548.562823 0C122.127059 883.501176 60.235294 874.194824 60.235294 685.025882c0-113.031529 46.682353-322.56 77.763765-501.36847 8.131765-46.742588-83.516235-64.271059-39.634824-82.82353 5.210353-2.198588 37.225412 12.860235 59.151059 11.414589 21.443765-1.445647 32.496941-19.425882 65.656471-20.239059 21.293176-0.542118 44.574118 15.962353 69.270588 15.661176 24.244706-0.301176 38.912-17.227294 65.355294-17.317647 18.492235-0.060235 48.338824 16.624941 67.463529 16.624941 23.100235 0.030118 30.72-16.745412 54.181648-16.624941zM662.588235 673.551059c-59.843765 10.541176-98.304 24.154353-115.350588 40.899765-16.986353 16.745412-25.901176 49.633882-26.624 98.695529 51.290353 0.662588 85.473882-7.378824 102.490353-24.124235S653.251765 733.786353 662.588235 673.551059z m-331.294117 0c9.306353 60.235294 22.467765 98.725647 39.484235 115.471059s51.2 24.786824 102.490353 24.094117c-0.722824-49.031529-9.637647-81.92-26.654118-98.665411-17.016471-16.745412-55.476706-30.388706-115.32047-40.899765z m331.294117-186.187294c-59.843765 14.034824-98.304 32.225882-115.350588 54.543059-16.986353 22.317176-25.901176 66.198588-26.624 131.584 51.290353 0.903529 85.473882-9.848471 102.490353-32.165648 17.016471-22.317176 30.177882-73.637647 39.484235-153.961411z m-331.294117 0c9.306353 80.323765 22.467765 131.614118 39.484235 153.961411 17.016471 22.317176 51.2 33.039059 102.490353 32.165648-0.722824-65.385412-9.637647-109.266824-26.654118-131.584-17.016471-22.317176-55.476706-40.508235-115.32047-54.543059zM494.953412 301.176471c-45.989647 57.825882-68.999529 100.713412-68.99953 128.602353 0 27.919059 23.009882 62.644706 68.99953 104.116705 48.64-41.502118 72.975059-76.197647 72.975059-104.116705 0-27.888941-24.335059-70.776471-72.975059-128.602353z" fill="#BC9E39" p-id="12157"></path></svg>