<?xml version="1.0" standalone="no"?><!DOCTYPE svg PUBLIC "-//W3C//DTD SVG 1.1//EN" "http://www.w3.org/Graphics/SVG/1.1/DTD/svg11.dtd"><svg t="1747308172971" class="icon" viewBox="0 0 1152 1024" version="1.1" xmlns="http://www.w3.org/2000/svg" p-id="30798" xmlns:xlink="http://www.w3.org/1999/xlink" width="225" height="200"><path d="M1120 448h-59c-17.6-40-43.2-75.4-74.8-105L1024 192h-64c-58.8 0-110.8 27-146 68.6-15.2-2.2-30.2-4.6-46-4.6H512c-154.8 0-283.8 110-313.6 256H112c-29.6 0-53-27-47-57.6C69.4 431.6 90.8 416 114 416h2c6.6 0 12-5.4 12-12v-40c0-6.6-5.4-12-12-12-57 0-107.8 40.8-115 97.2C-7.8 517.6 45.4 576 112 576h80c0 104.4 50.8 196.2 128 254.6V992c0 17.6 14.4 32 32 32h128c17.6 0 32-14.4 32-32v-96h256v96c0 17.6 14.4 32 32 32h128c17.6 0 32-14.4 32-32v-161.4c23.6-17.8 44.6-38.8 62.6-62.6H1120c17.6 0 32-14.4 32-32V480c0-17.6-14.4-32-32-32z m-256 128c-17.6 0-32-14.4-32-32s14.4-32 32-32 32 14.4 32 32-14.4 32-32 32zM512 192h256c10.8 0 21.4 0.8 31.8 1.6 0-0.6 0.2-1 0.2-1.6 0-106-86-192-192-192s-192 86-192 192c0 4.2 1 8.2 1.2 12.4 30.4-7.8 62-12.4 94.8-12.4z" fill="#0e932e" p-id="30799"></path></svg>