<?xml version="1.0" standalone="no"?><!DOCTYPE svg PUBLIC "-//W3C//DTD SVG 1.1//EN" "http://www.w3.org/Graphics/SVG/1.1/DTD/svg11.dtd"><svg t="1747308234912" class="icon" viewBox="0 0 1024 1024" version="1.1" xmlns="http://www.w3.org/2000/svg" p-id="32988" xmlns:xlink="http://www.w3.org/1999/xlink" width="200" height="200"><path d="M512.0064 1002.666667c-103.338667 0-150.058667-10.752-170.581333-18.858667-17.749333 7.509333-56.362667 18.858667-128.085334 18.858667-113.664 0-213.333333-109.653333-213.333333-234.666667 0-109.184 94.208-195.925333 163.029333-259.242667 13.056-11.989333 25.088-23.082667 35.2-33.194666C263.387733 410.453333 298.673067 362.965333 298.673067 298.666667c0-59.434667-26.538667-64-64-64-29.824 0-42.666667 32.384-42.666667 42.666666 0 30.634667-21.376 85.333333-64 85.333334-13.568 0-25.344-3.669333-34.901333-8.832-6.144 4.821333-15.402667 8.832-29.098667 8.832C23.8144 362.666667 5.339733 301.312 0.6464 282.496A20.906667 20.906667 0 0 1 0.0064 277.333333c0-169.856 93.312-256 277.333333-256 96.938667 0 170.922667 49.664 208.256 139.776 45.141333 108.970667 25.472 253.994667-43.818666 323.328-23.168 23.168-45.44 43.818667-66.176 63.061334-43.861333 40.661333-78.634667 72.874667-99.157334 107.050666 85.333333-77.397333 253.696-206.506667 427.562667-206.506666 237.269333 0 302.933333 21.546667 305.578667 22.485333a21.333333 21.333333 0 0 1 13.738666 25.557333c-0.341333 1.322667-13.056 48.512-42.538666 109.184l31.402666 15.701334a21.418667 21.418667 0 0 1 9.301334 29.098666C847.1104 977.237333 587.441067 1002.666667 512.0064 1002.666667z m-157.354667-59.349334c0.256 0 30.165333 16.682667 157.354667 16.682667 67.925333 0 298.496-22.784 461.312-310.826667l-12.288-6.144C901.211733 749.44 793.649067 874.666667 618.673067 874.666667c-285.738667 0-343.808-20.608-349.482667-22.954667a21.333333 21.333333 0 0 1 16.298667-39.424c1.749333 0.597333 58.112 19.712 333.184 19.712 230.698667 0 331.690667-250.282667 356.821333-325.546667-33.322667-5.930667-112.554667-15.786667-271.488-15.786666-224.085333 0-451.285333 246.528-453.546667 249.002666A21.333333 21.333333 0 0 1 213.339733 725.333333c0-85.674667 58.794667-140.202667 133.248-209.152 20.352-18.858667 42.282667-39.168 65.024-61.909333 56.192-56.234667 72.362667-185.557333 34.602667-276.821333C424.753067 125.696 378.033067 64 277.339733 64 69.083733 64 43.185067 183.338667 42.673067 274.645333c5.162667 18.901333 14.805333 39.125333 21.162666 44.501334a20.906667 20.906667 0 0 1 12.629334-19.072 21.632 21.632 0 0 1 26.453333 7.850666c0.170667 0.213333 9.088 12.074667 25.088 12.074667 9.216 0 21.333333-26.837333 21.333333-42.666667 0-30.634667 28.501333-85.333333 85.333334-85.333333C263.857067 192 341.339733 192 341.339733 298.666667c0 86.954667-53.418667 147.584-112.896 207.104-10.538667 10.496-22.997333 21.973333-36.522666 34.389333C128.945067 598.144 42.673067 677.504 42.673067 768c0 113.152 89.941333 192 170.666666 192 86.613333 0 116.010667-17.664 116.266667-17.792a21.973333 21.973333 0 0 1 25.045333 1.109333z" p-id="32989" fill="#0e932e"></path><path d="M85.339733 512h-0.938666a21.333333 21.333333 0 0 1-19.498667-15.189333l-64-213.333334a21.290667 21.290667 0 1 1 40.874667-12.288l46.421333 154.794667 62.634667-156.586667a21.376 21.376 0 0 1 39.637333 15.829334l-85.333333 213.333333A21.333333 21.333333 0 0 1 85.339733 512z" p-id="32990" fill="#0e932e"></path><path d="M64.0064 256m-21.333333 0a21.333333 21.333333 0 1 0 42.666666 0 21.333333 21.333333 0 1 0-42.666666 0Z" p-id="32991" fill="#0e932e"></path><path d="M576.0064 789.333333a21.333333 21.333333 0 0 1 0-42.666666c100.309333 0 272.554667-140.288 368.042667-229.034667-145.536 23.637333-395.648 116.352-435.584 176.810667a21.333333 21.333333 0 0 1-35.584-23.552C531.4624 582.229333 874.929067 469.333333 1002.673067 469.333333a21.333333 21.333333 0 0 1 15.189333 36.309334c-11.434667 11.605333-281.429333 283.690667-441.856 283.690666z" p-id="32992" fill="#0e932e"></path></svg>