<?xml version="1.0" standalone="no"?><!DOCTYPE svg PUBLIC "-//W3C//DTD SVG 1.1//EN" "http://www.w3.org/Graphics/SVG/1.1/DTD/svg11.dtd"><svg t="1747301847306" class="icon" viewBox="0 0 1024 1024" version="1.1" xmlns="http://www.w3.org/2000/svg" p-id="24058" xmlns:xlink="http://www.w3.org/1999/xlink" width="200" height="200"><path d="M655.701333 279.381333c-30.378667 3.072-60.074667 16.042667-87.722666 38.229334-33.109333 26.282667-79.530667 26.282667-112.64 0.341333-27.306667-21.504-55.978667-34.133333-86.016-38.229333C243.473067 262.9632 136.533333 345.258667 136.533333 513.877333c0 159.744 102.4 404.48 228.693334 404.48 38.570667 0 76.458667-15.018667 108.885333-43.349333 21.162667-18.432 54.613333-18.773333 75.776 0 32.426667 28.330667 70.314667 43.349333 108.885333 43.349333 126.293333 0 228.693333-244.736 228.693334-404.48 0-165.717333-98.030933-247.7056-231.765334-234.496z m-300.714666 486.4a33.8944 33.8944 0 0 1-46.762667-12.288c-26.624-44.714667-48.469333-102.058667-59.733333-156.672a33.723733 33.723733 0 0 1 26.282666-40.277333 33.723733 33.723733 0 0 1 40.277334 26.282667c9.898667 46.762667 29.354667 97.962667 51.882666 136.192 9.557333 16.384 4.437333 37.205333-11.946666 46.762666z" p-id="24059" fill="#0e932e"></path><path d="M524.288 287.232h0.682667c45.056-2.048 81.92-21.162667 103.765333-53.589333 22.186667-32.085333 26.624-73.728 12.288-116.394667a17.066667 17.066667 0 0 0-17.066667-11.605333c-44.714667 2.048-81.578667 21.162667-103.765333 53.589333-22.186667 32.426667-26.282667 73.728-11.946667 116.394667 2.048 6.826667 8.874667 11.605333 16.042667 11.605333z" p-id="24060" fill="#0e932e"></path></svg>