<?xml version="1.0" standalone="no"?><!DOCTYPE svg PUBLIC "-//W3C//DTD SVG 1.1//EN" "http://www.w3.org/Graphics/SVG/1.1/DTD/svg11.dtd"><svg t="1747556412607" class="icon" viewBox="0 0 1025 1024" version="1.1" xmlns="http://www.w3.org/2000/svg" p-id="41342" xmlns:xlink="http://www.w3.org/1999/xlink" width="200.1953125" height="200"><path d="M731.424 402.272q0-14.848-10.848-25.728t-25.728-10.848q-98.272 0-181.728 28.288t-148.288 76.576-134.56 125.44q-10.848 12-10.848 25.728 0 14.848 10.848 25.728t25.728 10.848q13.728 0 25.728-10.848 15.424-13.728 42.272-40.576t38.272-37.728q78.272-70.848 153.44-100.576t179.136-29.728q14.848 0 25.728-10.848t10.848-25.728zM1024 289.152q0 54.272-11.424 110.272-26.272 128-105.44 218.848t-204.288 153.152q-122.272 61.728-250.272 61.728-84.576 0-163.424-26.848-8.576-2.848-50.272-24t-54.848-21.152q-9.152 0-22.56 18.272t-25.728 40-30.016 40-34.272 18.272q-17.152 0-29.152-6.272t-17.728-13.728-15.424-24q-1.152-2.272-3.424-6.272t-3.136-5.728-1.728-5.44-0.864-7.712q0-20 17.728-42.016t38.848-37.44 38.848-32 17.728-27.424q0-2.272-8-21.728t-9.152-25.152q-5.152-29.152-5.152-59.424 0-65.728 24.864-125.728t68-105.44 97.44-79.424 116.576-54.56q31.424-10.272 82.848-14.56t102.56-5.152 102.016-3.424 93.44-13.728 64.864-32.288l16.864-16.864t16.864-16 15.424-11.424 20.864-9.152 24.864-2.56q22.272 0 40.288 26.272t27.136 64 13.728 70.848 4.576 54.848z" p-id="41343" fill="#ffffff"></path></svg>