<?xml version="1.0" standalone="no"?><!DOCTYPE svg PUBLIC "-//W3C//DTD SVG 1.1//EN" "http://www.w3.org/Graphics/SVG/1.1/DTD/svg11.dtd"><svg t="1747238470541" class="icon" viewBox="0 0 1025 1024" version="1.1" xmlns="http://www.w3.org/2000/svg" p-id="43702" xmlns:xlink="http://www.w3.org/1999/xlink" width="200.1953125" height="200"><path d="M494.291628 6.943925L7.520665 458.882335a22.934535 22.934535 0 0 0 5.727813 37.719744l66.661497 34.227175a23.493346 23.493346 0 0 1 13.248478 20.722575v448.678679a24.634252 24.634252 0 0 0 25.612172 23.749468h225.363826a24.634252 24.634252 0 0 0 25.612172-23.749468V658.657274a24.657536 24.657536 0 0 1 25.612171-23.749468h234.071965a24.634252 24.634252 0 0 1 25.612172 23.749468v341.573234a24.657536 24.657536 0 0 0 25.612171 23.749468h225.340543a24.657536 24.657536 0 0 0 25.612171-23.749468V551.551829a23.470063 23.470063 0 0 1 13.225194-20.722575l66.684782-34.227175a22.934535 22.934535 0 0 0 5.727813-37.719744L530.451358 6.943925a26.985915 26.985915 0 0 0-36.15973 0z" fill="#0e932e" p-id="43703"></path></svg>