<?xml version="1.0" standalone="no"?><!DOCTYPE svg PUBLIC "-//W3C//DTD SVG 1.1//EN" "http://www.w3.org/Graphics/SVG/1.1/DTD/svg11.dtd"><svg t="1747238601112" class="icon" viewBox="0 0 1024 1024" version="1.1" xmlns="http://www.w3.org/2000/svg" p-id="47550" xmlns:xlink="http://www.w3.org/1999/xlink" width="200" height="200"><path d="M732.8 412.8c0-19.2-16-35.2-35.2-35.2-201.6 0-332.8 83.2-464 230.4-6.4 6.4-9.6 16-9.6 25.6 0 19.2 16 35.2 35.2 35.2 9.6 0 19.2-3.2 25.6-9.6 28.8-25.6 54.4-51.2 80-76.8 102.4-92.8 192-131.2 332.8-131.2 16-3.2 35.2-19.2 35.2-38.4zM1024 297.6c0 35.2-3.2 73.6-12.8 108.8-35.2 179.2-150.4 294.4-310.4 371.2-76.8 38.4-163.2 60.8-249.6 60.8-54.4 0-112-9.6-163.2-25.6-28.8-9.6-83.2-44.8-105.6-44.8-28.8 0-64 115.2-112 115.2-35.2 0-48-19.2-60.8-44.8-6.4-6.4-9.6-9.6-9.6-19.2 0-60.8 112-105.6 112-137.6 0-6.4-16-35.2-16-48-3.2-19.2-6.4-38.4-6.4-60.8 0-182.4 144-310.4 307.2-364.8 118.4-38.4 364.8 6.4 444.8-70.4 32-28.8 48-57.6 96-57.6 64 3.2 86.4 169.6 86.4 217.6z" p-id="47551" fill="#0e932e"></path></svg>